<svg width="1200" height="540" viewBox="0 0 1200 540" xmlns="http://www.w3.org/2000/svg" role="img" aria-labelledby="title desc">
  <title id="title">Coast Internet Radio architecture</title>
  <desc id="desc">Architecture diagram showing the listener browser, Netlify static site, Netlify Functions, Netlify Blobs and Cloudflare Workers.</desc>
  <defs>
    <marker id="arrow" markerWidth="12" markerHeight="12" refX="10" refY="6" orient="auto">
      <path d="M2,2 L10,6 L2,10 Z" fill="#2563eb"/>
    </marker>
    <style>
      .bg { fill: #f8fafc; }
      .title { font: 800 34px Segoe UI, Arial, sans-serif; fill: #0f172a; }
      .label { font: 800 19px Segoe UI, Arial, sans-serif; fill: #0f172a; }
      .small { font: 16px Segoe UI, Arial, sans-serif; fill: #475569; }
      .box { fill: #ffffff; stroke: #cbd5e1; stroke-width: 2; rx: 18; }
      .accent { fill: #eff6ff; stroke: #93c5fd; stroke-width: 2; rx: 18; }
      .note { fill: #ecfdf5; stroke: #86efac; stroke-width: 2; rx: 16; }
      .line { stroke: #2563eb; stroke-width: 3; fill: none; marker-end: url(#arrow); }
    </style>
  </defs>

  <rect class="bg" width="1200" height="540"/>
  <text class="title" x="600" y="68" text-anchor="middle">Coast Internet Radio Architecture</text>

  <rect class="box" x="70" y="205" width="190" height="110"/>
  <text class="label" x="165" y="246" text-anchor="middle">Listener</text>
  <text class="small" x="165" y="275" text-anchor="middle">Browser player</text>

  <rect class="accent" x="350" y="205" width="210" height="110"/>
  <text class="label" x="455" y="246" text-anchor="middle">Netlify</text>
  <text class="small" x="455" y="275" text-anchor="middle">Static website</text>

  <rect class="accent" x="650" y="205" width="235" height="110"/>
  <text class="label" x="768" y="246" text-anchor="middle">Netlify Functions</text>
  <text class="small" x="768" y="275" text-anchor="middle">API, auth, analytics</text>

  <rect class="box" x="965" y="125" width="190" height="100"/>
  <text class="label" x="1060" y="163" text-anchor="middle">Netlify Blobs</text>
  <text class="small" x="1060" y="191" text-anchor="middle">Content/history</text>

  <rect class="box" x="965" y="315" width="190" height="100"/>
  <text class="label" x="1060" y="353" text-anchor="middle">Cloudflare Workers</text>
  <text class="small" x="1060" y="381" text-anchor="middle">Metadata proxy</text>

  <path class="line" d="M260 260 H350"/>
  <path class="line" d="M560 260 H650"/>
  <path class="line" d="M885 238 C920 210 930 175 965 175"/>
  <path class="line" d="M885 285 C920 315 930 365 965 365"/>

  <rect class="note" x="330" y="430" width="540" height="72"/>
  <text class="label" x="600" y="459" text-anchor="middle">Reliable static frontend with a serverless backend</text>
  <text class="small" x="600" y="487" text-anchor="middle">Live player, admin tools, metadata proxying and privacy-conscious analytics.</text>
</svg>